<?xml version="1.0" encoding="UTF-8" standalone="no"?>
<!-- Generator: Adobe Illustrator 24.0.1, SVG Export Plug-In . SVG Version: 6.00 Build 0)  -->

<svg
        xmlns:dc="http://purl.org/dc/elements/1.1/"
        xmlns:cc="http://creativecommons.org/ns#"
        xmlns:rdf="http://www.w3.org/1999/02/22-rdf-syntax-ns#"
        xmlns:sodipodi="http://sodipodi.sourceforge.net/DTD/sodipodi-0.dtd"
        xmlns:inkscape="http://www.inkscape.org/namespaces/inkscape"
        xmlns="http://www.w3.org/2000/svg"
        version="1.1"
        id="svg8"
        inkscape:export-filename="C:\Users\afons\Google Drive\Escola\PAP\Documentos Comuns\Logótipo\myschool_branco.png"
        inkscape:export-xdpi="96"
        inkscape:export-ydpi="96"
        inkscape:version="0.92.4 (5da689c313, 2019-01-14)"
        sodipodi:docname="myschool.svg"
        x="0px"
        y="0px"
        viewBox="0 0 1993.6 479.2"
        style="enable-background:new 0 0 1993.6 479.2;"
        xml:space="preserve"><metadata
   id="metadata16"><rdf:RDF><cc:Work
       rdf:about=""><dc:format>image/svg+xml</dc:format><dc:type
        rdf:resource="http://purl.org/dc/dcmitype/StillImage"/></cc:Work></rdf:RDF></metadata>
    <defs
            id="defs14"/>
    <style
            type="text/css"
            id="style2">
	.st0{fill:#1481DB;}
	.st1{enable-background:new    ;}
	.st2{font-family:'Montserrat-Bold';}
	.st3{font-size:266.6667px;}
</style>
    <sodipodi:namedview
            bordercolor="#666666"
            borderopacity="1.0"
            fit-margin-bottom="100"
            fit-margin-left="100"
            fit-margin-right="100"
            fit-margin-top="100"
            id="base"
            inkscape:current-layer="layer1"
            inkscape:cx="1145.1565"
            inkscape:cy="238.767"
            inkscape:document-units="mm"
            inkscape:pageopacity="0.0"
            inkscape:pageshadow="2"
            inkscape:window-height="715"
            inkscape:window-maximized="1"
            inkscape:window-width="1366"
            inkscape:window-x="-8"
            inkscape:window-y="-8"
            inkscape:zoom="0.35"
            pagecolor="#ffffff"
            showgrid="false"
            units="px"
            width="1200px">
	</sodipodi:namedview>
    <g
            id="layer1"
            transform="translate(7.0624083,-141.99301)"
            inkscape:groupmode="layer"
            inkscape:label="Layer 1">
	<path
            id="path10"
            inkscape:connector-curvature="0"
            class="st0"
            d="M430.9,242c-34.2,1.9-102,9-143.9,34.6   c-2.9,1.8-4.5,4.9-4.5,8.2v226.8c0,7.2,7.9,11.7,14.5,8.4c43.1-21.7,105.5-27.6,136.3-29.2c10.5-0.6,18.7-9,18.7-19.1V261.2   C451.9,250.1,442.4,241.4,430.9,242L430.9,242z M257.9,276.7C216,251,148.1,244,114,242c-11.5-0.6-21.1,8.1-21.1,19.1v210.6   c0,10.1,8.2,18.6,18.7,19.1c30.8,1.6,93.2,7.5,136.3,29.3c6.6,3.3,14.5-1.2,14.5-8.4V284.8C262.5,281.5,260.8,278.4,257.9,276.7   L257.9,276.7z"
            style="fill:#000000;fill-opacity:1"/>
        <text
                transform="matrix(1 0 0 1 528.3185 453.6004)"
                class="st1"
                id="text10"
                style="fill:#1481db;fill-opacity:1;"><tspan
     x="0"
     y="0"
     class="st2 st3"
     id="tspan6"
     style="-inkscape-font-specification:'Montserrat Bold';font-family:Montserrat;font-weight:bold;font-style:normal;font-stretch:normal;font-variant:normal;fill:#000000;fill-opacity:1">my</tspan>
            <tspan
                    x="439.2"
                    y="0"
                    class="st0 st2 st3"
                    id="tspan8"
                    style="font-style:normal;font-variant:normal;font-weight:bold;font-stretch:normal;font-family:Montserrat;-inkscape-font-specification:'Montserrat Bold';fill:#000000;fill-opacity:1">School</tspan></text>


        <path
                style="fill:#000000;fill-opacity:1;stroke-width:2.02030516"
                d="m 292.95966,374.73981 c -1.82962,-1.82963 -2.42436,-31.03724 -2.42436,-119.06043 V 139.04332 l 5.98421,-4.26114 c 8.30224,-5.91171 30.34013,-14.72129 49.57418,-19.81713 36.67678,-9.71708 88.89358,-16.133128 99.94503,-12.28057 12.33279,4.29923 12.1819,2.77788 12.1819,122.82461 v 109.16494 l -5.57354,6.23787 c -5.35933,5.99813 -6.46582,6.31275 -28.78935,8.18622 -41.943,3.51997 -79.59495,11.33904 -106.70604,22.15931 -16.27269,6.49457 -20.56235,7.11206 -24.19203,3.48238 z"
                id="path3731"
                inkscape:connector-curvature="0"
                transform="translate(-7.0624083,141.99301)"/></g>
</svg>